<?xml version="1.0" encoding="UTF-8" ?>
<!DOCTYPE svg PUBLIC "-//W3C//DTD SVG 1.1//EN" "http://www.w3.org/Graphics/SVG/1.1/DTD/svg11.dtd">
<svg width="1018pt" height="982pt" viewBox="0 0 1018 982" version="1.1" xmlns="http://www.w3.org/2000/svg">
<path fill="#fdfefd" d=" M 0.00 0.00 L 1018.00 0.00 L 1018.00 982.00 L 957.78 982.00 C 976.12 980.21 992.35 967.92 1001.35 952.17 C 1008.47 939.98 1011.15 924.66 1006.34 911.16 C 1002.76 901.53 995.61 893.83 988.26 886.89 C 980.79 879.70 972.04 873.53 966.68 864.44 C 960.45 853.72 962.39 838.21 972.43 830.47 C 975.79 829.65 978.06 832.98 979.75 835.35 C 985.15 844.03 987.28 854.69 985.88 864.80 C 985.48 868.64 984.38 872.58 985.66 876.39 C 989.79 878.34 994.11 875.60 997.48 873.33 C 1005.05 867.82 1011.52 860.54 1015.32 851.93 C 1019.14 843.49 1018.81 833.07 1013.90 825.15 C 1009.25 817.72 1000.85 813.52 992.49 811.81 C 970.85 807.34 947.05 812.68 930.15 827.16 C 918.53 837.07 910.34 852.19 912.07 867.78 C 912.87 877.30 918.07 885.72 924.35 892.65 C 931.24 901.03 940.15 907.35 948.15 914.59 C 953.95 919.29 958.39 925.47 961.79 932.07 C 965.14 939.08 966.83 947.73 963.22 954.98 C 961.26 959.14 956.12 961.31 951.76 959.95 C 947.36 958.55 944.45 954.65 942.03 950.96 C 937.26 943.36 936.57 934.12 932.69 926.16 C 931.20 922.77 927.65 920.37 923.89 920.82 C 917.08 921.40 910.71 924.44 905.02 928.08 C 900.71 931.05 896.23 934.66 894.75 939.91 C 893.39 946.80 897.91 952.95 902.23 957.81 C 914.54 970.90 931.27 980.44 949.38 982.00 L 0.00 982.00 L 0.00 397.33 C 2.68 427.45 20.78 456.48 48.14 470.04 C 57.06 474.66 66.84 477.15 76.58 479.35 C 91.19 517.16 108.14 554.05 127.04 589.90 C 136.69 607.91 146.83 625.69 158.63 642.38 C 159.62 643.59 160.28 645.27 161.83 645.88 C 169.26 617.93 182.62 591.42 201.27 569.26 C 212.55 556.03 226.06 544.67 241.25 536.18 C 256.95 527.37 273.77 520.09 291.57 516.90 C 307.05 514.13 323.72 514.32 338.20 521.04 C 353.35 527.97 363.70 542.98 367.25 558.98 C 369.79 569.91 368.74 581.38 365.74 592.10 C 356.45 624.36 333.02 652.19 302.84 666.88 C 291.04 672.38 276.35 671.89 265.42 664.57 C 261.99 662.12 258.72 658.96 257.17 654.99 C 257.23 654.58 257.36 653.78 257.42 653.37 C 260.11 648.61 264.25 644.90 268.05 641.04 C 287.11 622.44 308.05 605.76 326.02 586.05 C 329.23 582.37 332.60 578.59 334.27 573.93 C 335.18 571.62 333.28 569.63 332.27 567.73 C 324.94 555.79 312.54 547.51 299.02 544.22 C 283.36 539.99 266.41 541.30 251.48 547.56 C 232.95 555.27 215.92 568.63 207.36 587.16 C 200.16 602.26 199.24 619.49 200.95 635.90 C 203.39 655.59 210.69 674.39 220.23 691.69 C 227.85 705.45 238.74 717.46 252.02 725.95 C 268.41 736.44 287.69 742.01 307.04 743.26 C 327.76 744.45 348.56 739.41 367.05 730.15 C 380.86 723.13 393.91 714.64 406.14 705.13 C 431.82 685.15 453.00 659.28 466.77 629.75 C 475.17 612.07 481.04 593.03 482.63 573.46 C 484.79 549.81 480.24 525.79 470.82 504.06 C 464.58 489.50 456.44 475.08 443.50 465.47 C 430.82 455.43 414.82 451.12 399.11 448.71 C 379.25 445.56 358.96 445.99 339.07 448.61 C 272.48 456.52 207.55 474.61 140.83 481.68 C 119.53 484.33 97.89 483.32 76.82 479.30 C 64.68 448.79 54.22 417.54 46.65 385.58 C 42.13 365.43 38.38 344.80 39.72 324.07 C 40.68 314.32 42.66 303.87 49.50 296.41 C 56.83 289.15 67.08 286.26 76.67 283.30 L 76.46 283.57 C 64.91 302.91 57.07 325.30 58.23 348.07 C 59.02 367.66 68.44 386.92 84.04 398.94 C 99.79 411.16 119.33 417.78 138.96 420.22 C 182.09 425.36 225.50 420.06 268.49 416.08 C 291.63 413.88 314.80 412.10 337.99 410.58 C 351.99 410.00 366.00 409.03 380.02 409.54 C 401.12 410.23 422.19 413.84 442.14 420.84 C 447.63 422.80 453.05 425.05 458.09 428.00 C 461.95 430.81 466.24 433.00 469.92 436.08 C 485.61 448.38 496.07 466.27 502.07 485.06 C 508.17 503.55 508.71 523.35 507.11 542.59 C 504.53 566.92 497.48 590.56 488.33 613.17 C 475.07 646.08 456.17 676.92 431.42 702.46 C 409.75 724.64 384.06 743.11 355.69 755.72 C 346.71 759.64 337.38 762.77 327.89 765.18 C 326.01 765.66 324.03 766.05 322.11 765.51 C 289.54 758.19 259.29 742.42 233.03 722.01 C 206.19 701.10 183.09 675.70 163.17 648.20 C 162.91 648.13 162.38 647.97 162.12 647.89 C 160.70 649.21 160.84 651.31 160.47 653.07 C 157.79 669.51 158.89 686.91 165.80 702.23 C 174.23 720.49 187.82 736.38 204.76 747.28 C 229.90 763.57 260.34 769.83 289.96 770.22 C 300.72 769.85 311.49 768.96 322.02 766.64 C 324.97 765.88 327.91 766.96 330.82 767.41 C 368.29 774.19 407.02 768.20 442.56 755.39 C 461.42 748.81 479.33 739.88 497.48 731.61 C 507.53 726.94 517.61 722.33 527.66 717.67 C 531.37 715.99 534.96 713.98 538.92 712.90 C 545.13 732.54 551.97 752.13 561.62 770.38 C 564.39 774.89 566.97 780.29 571.97 782.62 C 579.98 783.88 587.72 780.38 595.13 777.83 C 611.50 771.44 627.28 763.62 642.78 755.38 C 634.13 733.96 624.92 712.77 615.94 691.50 C 583.78 614.01 551.12 536.72 518.78 459.30 C 499.97 414.46 481.19 369.61 462.35 324.78 C 460.77 320.69 457.21 317.82 453.62 315.55 C 446.38 311.17 438.33 308.35 430.31 305.80 C 408.06 299.00 385.08 295.04 362.13 291.46 C 331.13 286.95 299.97 283.44 268.74 281.17 C 270.40 262.17 265.25 242.82 255.31 226.63 C 247.50 214.16 233.84 206.23 219.50 203.86 C 196.52 199.91 172.86 204.32 151.19 212.25 C 132.42 219.19 114.94 229.19 98.37 240.31 C 68.85 260.26 42.97 285.98 24.41 316.50 C 11.69 337.38 1.53 360.61 0.00 385.30 L 0.00 0.00 Z" />
<path fill="#2cad4d" d=" M 663.83 6.58 C 677.39 3.78 691.13 1.30 705.01 1.03 C 718.34 1.11 731.69 0.71 745.02 1.30 C 761.25 2.84 777.32 6.11 792.86 11.04 C 811.68 17.06 830.05 25.85 844.59 39.47 C 868.49 61.39 878.90 97.11 870.15 128.37 C 867.29 138.47 862.51 147.95 856.67 156.64 C 856.41 157.21 855.87 158.33 855.60 158.89 C 871.59 195.02 885.38 232.13 897.19 269.83 C 903.95 291.91 910.07 314.26 913.64 337.10 C 928.77 346.77 942.08 360.14 949.07 376.91 C 955.75 393.28 957.93 411.38 956.00 428.93 C 953.08 454.03 941.30 477.28 926.13 497.18 C 914.31 512.59 899.92 526.16 883.42 536.47 C 869.46 557.91 851.01 576.33 829.98 590.87 C 815.32 601.08 799.45 609.42 783.18 616.72 C 791.59 626.35 801.11 635.04 811.47 642.54 C 821.35 649.65 833.96 652.94 846.03 651.10 C 862.19 648.77 876.54 640.03 889.24 630.20 C 911.40 612.64 929.54 590.71 946.70 568.40 C 948.62 569.38 950.61 570.21 952.64 570.96 C 950.90 575.17 948.35 578.98 946.41 583.10 C 944.32 587.84 940.77 591.65 937.80 595.81 C 933.19 602.06 928.39 608.16 923.90 614.49 C 923.45 614.58 922.55 614.77 922.10 614.86 C 907.35 632.10 891.60 648.50 874.93 663.89 C 864.40 673.19 853.52 682.27 841.25 689.21 C 831.21 694.84 819.42 698.39 807.87 696.17 C 799.41 694.41 791.43 689.81 786.06 682.98 C 773.25 666.21 768.28 645.29 760.33 626.11 C 738.04 633.55 716.20 642.38 694.00 650.12 C 695.13 653.70 697.17 656.88 698.75 660.28 C 705.73 674.50 712.47 688.92 717.39 704.02 C 719.18 709.84 721.06 715.91 720.28 722.08 C 718.96 726.43 714.50 728.59 710.96 730.88 C 695.87 739.18 679.45 744.65 663.20 750.16 C 658.88 751.41 654.71 753.22 650.26 753.88 C 643.69 737.29 636.84 720.82 630.01 704.35 C 628.69 701.00 627.04 697.77 626.08 694.29 C 624.98 689.27 622.84 684.59 621.15 679.76 C 606.58 640.38 593.29 600.52 581.84 560.12 C 573.04 528.77 565.03 497.15 559.32 465.08 C 567.90 480.35 579.40 493.87 592.76 505.16 C 607.34 517.57 623.77 527.67 640.93 536.11 C 675.79 553.45 713.92 564.85 752.90 567.04 C 785.48 568.74 818.44 564.07 849.19 553.14 C 859.34 549.43 869.15 544.80 878.47 539.34 C 880.47 538.13 882.76 537.11 884.03 535.03 C 900.44 509.34 910.46 479.92 915.27 449.91 C 921.12 412.55 919.55 374.29 913.38 337.07 C 901.92 330.17 889.73 324.52 877.03 320.30 C 859.38 314.24 840.88 310.40 822.20 309.97 C 805.20 309.37 788.16 312.23 772.00 317.46 C 753.67 323.27 735.78 331.54 721.13 344.19 C 710.53 353.48 701.33 365.29 698.20 379.30 C 695.36 392.98 698.38 407.54 705.63 419.40 C 712.32 430.42 722.68 438.85 734.11 444.59 C 757.63 456.62 785.12 460.54 811.09 455.70 C 822.04 453.69 833.50 450.77 841.83 442.89 C 849.45 435.54 854.97 424.79 853.11 413.99 C 852.70 412.51 852.82 410.47 851.18 409.73 C 846.94 408.25 842.38 408.59 837.97 408.39 C 814.29 408.46 790.68 410.82 767.00 410.69 C 759.35 410.62 751.61 410.86 744.11 409.16 C 742.12 408.68 740.08 407.98 738.61 406.51 C 734.62 395.06 735.18 382.18 739.68 370.96 C 745.88 355.43 757.67 342.24 772.38 334.30 C 784.51 327.76 798.18 324.02 811.94 323.33 C 827.98 322.47 844.16 327.38 857.14 336.82 C 882.50 355.04 897.27 384.38 905.07 413.96 C 909.42 431.71 908.84 450.75 902.85 468.05 C 897.37 483.96 888.36 498.62 876.83 510.86 C 865.27 522.99 850.89 532.25 835.38 538.49 C 820.81 544.33 805.39 547.65 789.97 550.28 C 767.15 553.65 743.75 553.88 720.97 550.11 C 685.09 543.75 649.45 528.84 624.02 502.05 C 608.49 485.83 597.34 465.74 590.48 444.44 C 586.40 432.48 584.45 419.58 586.47 407.02 C 588.75 390.15 598.01 375.34 608.05 362.00 C 619.82 346.55 634.14 333.22 649.53 321.44 C 699.31 282.49 754.27 250.82 804.04 211.87 C 823.70 196.85 842.13 179.47 855.18 158.28 C 840.46 125.02 824.32 92.22 804.25 61.82 C 794.47 47.26 783.76 33.05 770.27 21.70 C 762.54 15.51 753.29 9.60 742.98 10.30 C 733.23 10.97 724.68 16.14 716.14 20.39 C 703.75 16.93 690.71 16.79 677.95 17.50 C 657.55 19.51 637.07 25.32 620.12 37.18 C 607.66 45.94 597.17 57.70 590.50 71.43 C 585.25 82.20 583.59 94.82 586.75 106.45 C 589.14 115.33 592.60 123.87 596.60 132.14 C 597.74 133.91 595.44 135.22 594.60 136.52 C 589.90 142.31 584.65 147.71 580.47 153.88 C 579.96 153.88 578.94 153.88 578.43 153.88 C 569.69 145.59 562.03 136.03 556.98 125.03 C 552.73 115.60 548.93 105.51 549.29 95.00 C 549.33 81.88 555.45 69.55 563.60 59.57 C 576.01 44.68 592.10 33.16 609.45 24.70 C 626.63 16.18 645.14 10.66 663.83 6.58 Z" />
<path fill="#2cad4d" d=" M 713.16 22.23 C 714.63 21.50 716.06 19.83 717.87 20.36 C 733.95 24.44 749.44 31.28 762.83 41.14 C 776.11 50.85 786.63 64.64 791.19 80.56 C 796.31 97.72 793.36 116.35 786.38 132.56 C 780.46 147.16 771.05 160.01 760.73 171.80 C 736.17 199.67 707.28 223.20 678.64 246.69 C 650.93 269.87 623.07 292.95 597.16 318.17 C 576.55 338.94 559.01 363.49 549.42 391.33 C 547.93 378.59 548.12 365.74 548.07 352.94 C 548.26 312.43 558.18 272.52 572.82 234.93 C 581.54 212.34 592.21 190.56 603.89 169.36 C 621.02 176.32 640.38 176.29 658.03 171.30 C 676.63 166.13 695.02 157.75 708.51 143.59 C 714.14 137.83 718.31 130.17 718.28 121.95 C 717.78 111.73 711.75 102.37 703.43 96.64 C 699.73 94.20 695.72 91.12 691.02 91.77 C 682.26 92.82 674.09 96.40 666.21 100.16 C 662.05 102.32 657.65 104.20 654.14 107.38 C 658.00 106.19 662.36 106.81 665.48 109.48 C 670.95 114.04 673.51 121.00 675.72 127.55 C 677.35 131.89 676.88 136.82 674.82 140.93 C 670.36 150.08 661.90 157.26 652.04 159.90 C 642.56 162.69 632.13 163.05 622.87 159.25 C 611.13 154.45 602.57 144.10 597.06 132.98 C 610.89 117.53 624.43 101.81 638.95 86.98 C 661.91 63.51 685.50 40.17 713.16 22.23 Z" />
<path fill="#535554" d=" M 574.76 159.72 C 576.26 157.65 578.14 155.90 580.31 154.54 C 587.10 160.95 595.44 165.51 603.89 169.36 C 592.21 190.56 581.54 212.34 572.82 234.93 C 558.18 272.52 548.26 312.43 548.07 352.94 C 548.12 365.74 547.93 378.59 549.42 391.33 C 549.53 394.32 548.21 397.13 547.78 400.07 C 543.77 419.59 547.76 440.01 555.98 457.93 C 557.01 460.35 558.51 462.57 559.32 465.08 C 565.03 497.15 573.04 528.77 581.84 560.12 C 593.29 600.52 606.58 640.38 621.15 679.76 C 622.84 684.59 624.98 689.27 626.08 694.29 C 619.01 678.34 612.76 662.03 606.03 645.93 C 561.87 538.14 517.67 430.37 473.59 322.55 C 472.12 319.54 472.02 316.12 472.45 312.87 C 473.54 305.74 476.38 299.04 479.41 292.55 C 486.79 277.23 496.05 262.91 505.63 248.89 C 526.98 217.89 550.66 188.59 574.76 159.72 Z" />
<path fill="#2cad4d" d=" M 151.19 212.25 C 172.86 204.32 196.52 199.91 219.50 203.86 C 233.84 206.23 247.50 214.16 255.31 226.63 C 265.25 242.82 270.40 262.17 268.74 281.17 L 268.61 281.16 C 259.58 280.68 250.58 278.98 241.52 279.36 C 241.46 279.24 241.34 278.98 241.28 278.85 C 241.23 278.75 241.13 278.54 241.08 278.43 C 237.74 268.27 233.46 258.32 227.66 249.30 C 218.57 235.83 202.74 228.58 187.00 226.57 C 167.30 223.47 146.87 227.43 129.16 236.37 C 108.21 246.93 89.62 262.75 77.28 282.82 C 77.12 282.94 76.82 283.18 76.67 283.30 C 67.08 286.26 56.83 289.15 49.50 296.41 C 42.66 303.87 40.68 314.32 39.72 324.07 C 38.38 344.80 42.13 365.43 46.65 385.58 C 54.22 417.54 64.68 448.79 76.82 479.30 C 97.89 483.32 119.53 484.33 140.83 481.68 C 207.55 474.61 272.48 456.52 339.07 448.61 C 358.96 445.99 379.25 445.56 399.11 448.71 C 414.82 451.12 430.82 455.43 443.50 465.47 C 456.44 475.08 464.58 489.50 470.82 504.06 C 480.24 525.79 484.79 549.81 482.63 573.46 C 481.04 593.03 475.17 612.07 466.77 629.75 C 453.00 659.28 431.82 685.15 406.14 705.13 C 393.91 714.64 380.86 723.13 367.05 730.15 C 348.56 739.41 327.76 744.45 307.04 743.26 C 287.69 742.01 268.41 736.44 252.02 725.95 C 238.74 717.46 227.85 705.45 220.23 691.69 C 210.69 674.39 203.39 655.59 200.95 635.90 C 199.24 619.49 200.16 602.26 207.36 587.16 C 215.92 568.63 232.95 555.27 251.48 547.56 C 266.41 541.30 283.36 539.99 299.02 544.22 C 312.54 547.51 324.94 555.79 332.27 567.73 C 333.28 569.63 335.18 571.62 334.27 573.93 C 332.60 578.59 329.23 582.37 326.02 586.05 C 308.05 605.76 287.11 622.44 268.05 641.04 C 264.25 644.90 260.11 648.61 257.42 653.37 C 257.36 653.78 257.23 654.58 257.17 654.99 C 258.72 658.96 261.99 662.12 265.42 664.57 C 276.35 671.89 291.04 672.38 302.84 666.88 C 333.02 652.19 356.45 624.36 365.74 592.10 C 368.74 581.38 369.79 569.91 367.25 558.98 C 363.70 542.98 353.35 527.97 338.20 521.04 C 323.72 514.32 307.05 514.13 291.57 516.90 C 273.77 520.09 256.95 527.37 241.25 536.18 C 226.06 544.67 212.55 556.03 201.27 569.26 C 182.62 591.42 169.26 617.93 161.83 645.88 C 160.28 645.27 159.62 643.59 158.63 642.38 C 146.83 625.69 136.69 607.91 127.04 589.90 C 108.14 554.05 91.19 517.16 76.58 479.35 C 66.84 477.15 57.06 474.66 48.14 470.04 C 20.78 456.48 2.68 427.45 0.00 397.33 L 0.00 385.30 C 1.53 360.61 11.69 337.38 24.41 316.50 C 42.97 285.98 68.85 260.26 98.37 240.31 C 114.94 229.19 132.42 219.19 151.19 212.25 Z" />
<path fill="#fdfefd" d=" M 129.16 236.37 C 146.87 227.43 167.30 223.47 187.00 226.57 C 202.74 228.58 218.57 235.83 227.66 249.30 C 233.46 258.32 237.74 268.27 241.08 278.43 C 202.42 275.38 163.55 273.54 124.81 276.10 C 108.82 277.06 92.81 278.78 77.28 282.82 C 89.62 262.75 108.21 246.93 129.16 236.37 Z" />
<path fill="#535554" d=" M 124.81 276.10 C 163.55 273.54 202.42 275.38 241.08 278.43 C 241.13 278.54 241.23 278.75 241.28 278.85 C 241.34 278.98 241.46 279.24 241.52 279.36 C 245.00 287.12 244.90 295.94 244.37 304.26 C 189.41 290.95 132.89 285.19 76.46 283.57 L 76.67 283.30 C 76.82 283.18 77.12 282.94 77.28 282.82 C 92.81 278.78 108.82 277.06 124.81 276.10 Z" />
<path fill="#fdfefd" d=" M 241.52 279.36 C 250.58 278.98 259.58 280.68 268.61 281.16 C 267.64 290.67 265.65 300.14 261.95 308.98 C 254.85 326.22 240.87 339.88 224.74 348.83 C 208.39 358.09 190.02 364.90 171.02 364.79 C 162.86 364.82 154.18 362.68 148.24 356.78 C 140.80 349.41 138.24 338.07 140.18 327.96 C 141.02 323.81 141.69 319.10 145.11 316.19 C 149.61 312.24 155.13 309.74 160.55 307.32 C 167.75 304.36 175.15 301.75 182.83 300.34 C 180.14 302.31 177.28 304.62 176.56 308.06 C 174.95 316.08 178.36 323.91 181.99 330.86 C 183.96 334.87 187.74 337.73 191.95 339.09 C 203.18 342.89 216.07 340.74 225.60 333.71 C 235.79 327.25 243.05 316.33 244.37 304.26 C 244.90 295.94 245.00 287.12 241.52 279.36 Z" />
<path fill="#535554" d=" M 268.61 281.16 L 268.74 281.17 C 299.97 283.44 331.13 286.95 362.13 291.46 C 385.08 295.04 408.06 299.00 430.31 305.80 C 438.33 308.35 446.38 311.17 453.62 315.55 C 457.21 317.82 460.77 320.69 462.35 324.78 C 481.19 369.61 499.97 414.46 518.78 459.30 C 551.12 536.72 583.78 614.01 615.94 691.50 C 615.17 690.43 614.37 689.41 613.73 688.29 C 581.82 618.58 546.16 550.32 503.09 486.79 C 502.83 486.36 502.33 485.49 502.07 485.06 C 496.07 466.27 485.61 448.38 469.92 436.08 C 466.24 433.00 461.95 430.81 458.09 428.00 C 437.12 402.95 412.97 380.29 385.35 362.70 C 347.46 338.25 305.18 321.34 261.95 308.98 C 265.65 300.14 267.64 290.67 268.61 281.16 Z" />
<path fill="#2cad4d" d=" M 76.46 283.57 C 132.89 285.19 189.41 290.95 244.37 304.26 C 243.05 316.33 235.79 327.25 225.60 333.71 C 216.07 340.74 203.18 342.89 191.95 339.09 C 187.74 337.73 183.96 334.87 181.99 330.86 C 178.36 323.91 174.95 316.08 176.56 308.06 C 177.28 304.62 180.14 302.31 182.83 300.34 C 175.15 301.75 167.75 304.36 160.55 307.32 C 155.13 309.74 149.61 312.24 145.11 316.19 C 141.69 319.10 141.02 323.81 140.18 327.96 C 138.24 338.07 140.80 349.41 148.24 356.78 C 154.18 362.68 162.86 364.82 171.02 364.79 C 190.02 364.90 208.39 358.09 224.74 348.83 C 240.87 339.88 254.85 326.22 261.95 308.98 C 305.18 321.34 347.46 338.25 385.35 362.70 C 412.97 380.29 437.12 402.95 458.09 428.00 C 453.05 425.05 447.63 422.80 442.14 420.84 C 422.19 413.84 401.12 410.23 380.02 409.54 C 366.00 409.03 351.99 410.00 337.99 410.58 C 314.80 412.10 291.63 413.88 268.49 416.08 C 225.50 420.06 182.09 425.36 138.96 420.22 C 119.33 417.78 99.79 411.16 84.04 398.94 C 68.44 386.92 59.02 367.66 58.23 348.07 C 57.07 325.30 64.91 302.91 76.46 283.57 Z" />
<path fill="#2cad4d" d=" M 502.07 485.06 C 502.33 485.49 502.83 486.36 503.09 486.79 C 546.16 550.32 581.82 618.58 613.73 688.29 C 614.37 689.41 615.17 690.43 615.94 691.50 C 624.92 712.77 634.13 733.96 642.78 755.38 C 627.28 763.62 611.50 771.44 595.13 777.83 C 587.72 780.38 579.98 783.88 571.97 782.62 C 566.97 780.29 564.39 774.89 561.62 770.38 C 551.97 752.13 545.13 732.54 538.92 712.90 C 534.96 713.98 531.37 715.99 527.66 717.67 C 517.61 722.33 507.53 726.94 497.48 731.61 C 479.33 739.88 461.42 748.81 442.56 755.39 C 407.02 768.20 368.29 774.19 330.82 767.41 C 327.91 766.96 324.97 765.88 322.02 766.64 C 311.49 768.96 300.72 769.85 289.96 770.22 C 260.34 769.83 229.90 763.57 204.76 747.28 C 187.82 736.38 174.23 720.49 165.80 702.23 C 158.89 686.91 157.79 669.51 160.47 653.07 C 160.84 651.31 160.70 649.21 162.12 647.89 C 162.38 647.97 162.91 648.13 163.17 648.20 C 183.09 675.70 206.19 701.10 233.03 722.01 C 259.29 742.42 289.54 758.19 322.11 765.51 C 324.03 766.05 326.01 765.66 327.89 765.18 C 337.38 762.77 346.71 759.64 355.69 755.72 C 384.06 743.11 409.75 724.64 431.42 702.46 C 456.17 676.92 475.07 646.08 488.33 613.17 C 497.48 590.56 504.53 566.92 507.11 542.59 C 508.71 523.35 508.17 503.55 502.07 485.06 Z" />
<path fill="#12170d" d=" M 311.94 810.62 C 327.64 809.96 343.78 810.16 358.83 815.22 C 372.22 819.88 384.81 829.29 390.03 842.87 C 395.19 855.63 392.85 870.05 387.59 882.39 C 381.27 897.11 371.74 911.17 357.85 919.66 C 349.13 924.95 339.47 928.90 329.36 930.45 C 323.67 931.04 317.24 931.43 312.52 927.58 C 312.26 926.72 312.00 925.88 311.73 925.04 C 312.31 923.04 312.86 920.94 314.36 919.41 C 318.84 914.35 325.17 911.61 330.58 907.74 C 340.32 901.01 346.85 889.82 347.79 878.00 C 349.12 867.57 347.61 855.82 340.03 847.94 C 337.84 845.89 335.83 843.30 332.90 842.33 C 327.61 859.62 321.88 876.77 316.45 894.02 C 314.10 901.38 311.38 908.63 309.44 916.13 C 306.26 928.32 303.22 940.62 298.23 952.24 C 296.18 957.11 293.19 961.61 289.47 965.37 C 284.67 969.54 278.93 972.46 273.09 974.86 C 267.66 976.93 261.91 978.78 256.02 978.26 C 251.73 978.10 248.05 974.22 248.10 969.93 C 247.89 963.48 249.77 957.22 251.45 951.07 C 262.30 914.24 275.56 878.20 288.02 841.91 C 288.85 839.42 289.90 837.01 290.79 834.55 C 283.75 833.96 277.70 838.20 271.02 839.41 C 267.42 840.13 264.79 836.24 265.44 832.97 C 266.34 826.23 271.40 820.43 277.45 817.57 C 288.37 813.03 300.27 811.78 311.94 810.62 Z" />
<path fill="#12170d" d=" M 509.54 810.81 C 516.37 810.34 523.62 809.51 530.18 811.95 C 532.72 812.60 533.13 815.66 531.46 817.46 C 527.00 823.56 520.24 827.82 513.07 830.04 C 505.84 832.33 498.34 833.99 491.52 837.40 C 482.38 842.51 475.05 850.24 468.34 858.16 C 457.10 873.24 451.12 892.12 451.57 910.94 C 451.92 922.45 452.82 934.44 458.28 944.82 C 462.06 952.08 469.54 957.88 478.01 957.72 C 487.20 958.33 495.12 952.41 501.33 946.29 C 511.55 935.61 518.39 921.59 520.17 906.90 C 521.67 892.99 516.37 879.36 508.99 867.83 C 507.11 864.69 505.02 861.54 504.17 857.95 C 503.43 853.67 506.21 849.87 509.18 847.13 C 516.02 840.90 523.83 835.51 532.57 832.32 C 538.97 829.73 547.06 832.36 550.55 838.36 C 554.66 845.15 556.02 853.16 557.23 860.89 C 559.03 879.67 557.19 899.00 550.24 916.64 C 541.28 940.23 523.97 961.09 500.96 972.01 C 476.71 983.71 446.57 981.72 423.93 967.22 C 412.20 959.64 403.89 946.85 402.43 932.89 C 400.03 915.80 405.25 898.66 412.69 883.43 C 423.25 862.36 438.82 843.65 458.13 830.08 C 473.38 819.63 491.33 813.49 509.54 810.81 Z" />
<path fill="#12170d" d=" M 814.00 816.35 C 826.80 812.15 840.36 809.15 853.89 810.75 C 856.55 811.24 859.75 811.98 860.64 814.97 C 856.75 822.60 848.85 827.45 840.92 830.02 C 831.91 832.97 822.16 834.67 814.41 840.49 C 806.60 846.19 799.82 853.25 794.05 860.98 C 788.27 870.16 783.37 880.16 781.36 890.89 C 778.70 902.34 779.15 914.29 780.44 925.90 C 781.83 935.36 784.46 945.48 791.80 952.16 C 799.23 959.28 811.53 959.44 819.86 953.78 C 834.18 944.54 843.38 928.78 847.13 912.41 C 850.08 899.50 846.86 885.98 840.70 874.51 C 837.85 868.75 833.37 863.75 831.82 857.41 C 831.46 853.03 834.51 849.32 837.57 846.57 C 844.22 840.69 851.70 835.54 860.05 832.43 C 866.53 829.64 874.73 832.30 878.36 838.35 C 882.43 845.11 883.84 853.08 885.02 860.78 C 887.43 883.17 883.87 906.36 873.68 926.53 C 865.02 944.19 851.33 959.53 834.12 969.22 C 815.25 980.13 791.81 982.56 771.04 976.03 C 758.87 972.39 747.02 965.96 739.31 955.61 C 732.82 947.22 729.83 936.53 729.69 926.03 C 729.29 911.40 733.90 897.14 740.17 884.09 C 749.65 864.88 763.32 847.70 780.10 834.37 C 790.16 826.33 801.79 820.39 814.00 816.35 Z" />
<path fill="#12170d" d=" M 930.15 827.16 C 947.05 812.68 970.85 807.34 992.49 811.81 C 1000.85 813.52 1009.25 817.72 1013.90 825.15 C 1018.81 833.07 1019.14 843.49 1015.32 851.93 C 1011.52 860.54 1005.05 867.82 997.48 873.33 C 994.11 875.60 989.79 878.34 985.66 876.39 C 984.38 872.58 985.48 868.64 985.88 864.80 C 987.28 854.69 985.15 844.03 979.75 835.35 C 978.06 832.98 975.79 829.65 972.43 830.47 C 962.39 838.21 960.45 853.72 966.68 864.44 C 972.04 873.53 980.79 879.70 988.26 886.89 C 995.61 893.83 1002.76 901.53 1006.34 911.16 C 1011.15 924.66 1008.47 939.98 1001.35 952.17 C 992.35 967.92 976.12 980.21 957.78 982.00 L 949.38 982.00 C 931.27 980.44 914.54 970.90 902.23 957.81 C 897.91 952.95 893.39 946.80 894.75 939.91 C 896.23 934.66 900.71 931.05 905.02 928.08 C 910.71 924.44 917.08 921.40 923.89 920.82 C 927.65 920.37 931.20 922.77 932.69 926.16 C 936.57 934.12 937.26 943.36 942.03 950.96 C 944.45 954.65 947.36 958.55 951.76 959.95 C 956.12 961.31 961.26 959.14 963.22 954.98 C 966.83 947.73 965.14 939.08 961.79 932.07 C 958.39 925.47 953.95 919.29 948.15 914.59 C 940.15 907.35 931.24 901.03 924.35 892.65 C 918.07 885.72 912.87 877.30 912.07 867.78 C 910.34 852.19 918.53 837.07 930.15 827.16 Z" />
<path fill="#12170d" d=" M 605.06 819.16 C 620.39 815.60 636.26 814.93 651.95 815.46 C 668.17 816.78 684.61 821.32 697.77 831.21 C 705.76 837.37 712.75 845.66 714.99 855.72 C 717.40 867.87 714.34 880.91 706.88 890.79 C 698.67 901.80 686.34 909.13 673.10 912.38 C 677.70 921.67 686.12 928.39 694.93 933.48 C 702.46 937.71 710.35 941.38 718.55 944.11 C 716.91 954.76 712.85 965.39 704.99 973.03 C 699.36 978.65 690.73 981.04 683.05 978.79 C 674.54 976.34 666.51 971.96 660.00 965.93 C 652.24 957.61 646.46 947.67 641.33 937.58 C 637.85 930.38 634.59 922.98 632.81 915.17 C 631.88 911.83 633.58 908.05 637.08 907.22 C 649.54 903.56 660.66 894.91 666.41 883.16 C 671.05 874.29 672.88 864.02 671.43 854.11 C 670.45 849.12 668.03 844.20 663.83 841.17 C 659.94 838.22 655.21 836.76 650.58 835.46 C 646.35 848.51 642.88 861.82 638.78 874.92 C 634.66 888.99 629.96 902.88 625.99 916.99 C 622.50 928.46 618.96 939.95 614.29 951.00 C 611.74 956.80 608.69 962.70 603.50 966.58 C 598.50 970.27 592.78 972.87 587.00 975.06 C 582.61 976.51 577.75 978.07 573.18 976.49 C 569.41 975.57 567.17 971.57 567.18 967.90 C 566.62 959.07 569.60 950.55 571.74 942.12 C 581.88 907.47 594.50 873.57 608.52 840.32 C 602.51 840.65 596.45 842.93 590.45 841.37 C 585.84 839.07 587.51 832.71 589.43 829.06 C 591.96 822.72 599.08 820.72 605.06 819.16 Z" />
</svg>
